<svg xmlns="http://www.w3.org/2000/svg" width="786" height="340" viewBox="0 0 786 340" style="background:#fff"><title>build__decl__search-form</title><g fill="none" fill-rule="evenodd"><ellipse cx="14.173" cy="36.271" fill="#FFF" stroke="#000" rx="14.173" ry="35.433" transform="translate(457.014 160.965)"/><ellipse cx="14.173" cy="36.271" fill="#FFF" stroke="#000" rx="14.173" ry="35.433" transform="translate(315.848 160.965)"/><path fill="#FC0" d="M131.216 17.708h134.31z"/><text fill="#000" font-family="Helvetica-Bold, Helvetica" font-size="16" font-weight="bold" transform="translate(32.712 21.355)"><tspan x=".49" y="15.33">Source files</tspan></text><path fill="#000" stroke="#000" stroke-width="1.5" d="M109.773 102.752l.034 12"/><text fill="#000" font-family="Helvetica" font-size="16" transform="translate(96.988 83.717)"><tspan x=".42" y="15.33">blocks/</tspan></text><text fill="#000" font-family="Helvetica" font-size="16" transform="translate(32.484 55.371)"><tspan x=".14" y="15.33">project/</tspan></text><path fill="#000" stroke="#000" stroke-width="1.5" d="M75.886 94.244h19.84M75.89 82.91v11.34m-.146 86.451h19.84m-19.836-10.768v11.34"/><text fill="#000" font-family="Helvetica" font-size="16" transform="translate(97.673 171.938)"><tspan x=".05" y="15.83">lib/</tspan></text><path d="M98.563 217.554h85.039V245.9H98.563z"/><path fill="#000" stroke="#000" stroke-width="1.5" d="M109.905 192.043v62.36m.148-50.892h14.17"/><text fill="#F66" font-family="Helvetica" font-size="16" transform="translate(127.528 192.922)"><tspan x=".87" y="15.25">button/</tspan></text><text fill="#F66" font-family="Helvetica" font-size="16" transform="translate(159.276 209.929)"><tspan x=".38" y="15.25">button.css</tspan></text><text fill="#F66" font-family="Helvetica" font-size="16" transform="translate(159.008 226.355)"><tspan x=".52" y="15.83">button.bemhtml.js</tspan></text><path fill="#000" stroke="#000" stroke-width="1.5" d="M141.103 220.377h14.17m-14.17 17.008h14.17m-14.166-24.807v24.81"/><text fill="#F66" font-family="Helvetica" font-size="16" transform="translate(128.546 102.622)"><tspan x=".55" y="15.83">search-form/</tspan></text><text fill="#F66" font-family="Helvetica" font-size="16" transform="translate(159.292 119.63)"><tspan x=".98" y="15.83">search-form.bemhtml.js</tspan></text><path fill="#000" stroke="#000" stroke-width="1.5" d="M109.77 114.22h14.17m16.879 16.441h14.17m-14.166-7.233v24.81m-.004.131h14.17"/><text fill="#F66" font-family="Helvetica" font-size="16" transform="translate(159.591 136.772)"><tspan x=".54" y="15.83">search-form.deps.js</tspan></text><path fill="#000" stroke="#000" stroke-width="1.5" d="M109.77 254.535h14.17"/><text fill="#F66" font-family="Helvetica" font-size="16" transform="translate(127.707 243.945)"><tspan x=".59" y="15.25">input/</tspan></text><text fill="#F66" font-family="Helvetica" font-size="16" transform="translate(159.455 260.953)"><tspan x=".1" y="15.25">input.css</tspan></text><text fill="#F66" font-family="Helvetica" font-size="16" transform="translate(158.856 277.945)"><tspan x=".72" y="15.83">input.bemhtml.js</tspan></text><path fill="#000" stroke="#000" stroke-width="1.5" d="M140.819 271.401h14.17m-14.17 17.008h14.17m-14.166-24.807v24.81"/><path fill="#FFF" d="M590.338 308.547c-.81 0-1.46-.65-1.46-1.46v-58.16c0-.81.65-1.46 1.46-1.46h37.59c.37 0 .75.15 1.03.43l8.13 8.14c.28.28.44.65.44 1.03v50.05c0 .81-.66 1.46-1.47 1.46h-45.72v-.03z"/><path fill="#12100B" d="M627.895 248.09c.22 0 .44.09.59.25l8.14 8.13c.15.16.25.38.25.59v50.06c0 .46-.38.84-.84.84h-45.69c-.47 0-.84-.38-.84-.84v-58.19c0-.47.37-.84.84-.84h37.55zm0-1.25h-37.55c-1.16 0-2.09.94-2.09 2.09v58.19c0 1.15.93 2.08 2.09 2.08h45.72c1.15 0 2.09-.93 2.09-2.08v-50.06c0-.56-.22-1.09-.63-1.46l-8.13-8.13c-.41-.41-.94-.63-1.5-.63z"/><text fill="#000" font-family="ArialMT, Arial" font-size="12" transform="translate(605.255 292.083)"><tspan x=".52" y="11.79">JS</tspan></text><path fill="#FFCC09" d="M627.742 247.467v7.7c0 1.15.93 2.08 2.09 2.08h7.66l-9.75-9.78z"/><path stroke="#010202" stroke-width="1.25" d="M627.742 247.467v7.7c0 1.15.93 2.08 2.09 2.08h7.66"/><path fill="#000" stroke="#010202" stroke-width="1.5" d="M595.173 260.001h36.06m-36.06 3.796h36.06m-36.06 3.796h36.06m-36.06 3.795h36.06m-36.06 3.796h26.57"/><g stroke="#BFBFBF" stroke-width="1.5"><path d="M241.047 220.763c9.155 3.3 24.557 1.893 42.817-3.912 18.26-5.806 37.883-15.534 54.55-27.044"/><path stroke-linecap="square" d="M338.609 189.134l.602-.434m-7.005 8.75l7.005-8.75-10.514 3.884"/></g><g stroke="#BFBFBF" stroke-width="1.5"><path d="M240.905 272.01c27.599 7.383 71.638-22.442 98.365-66.616"/><path stroke-linecap="square" d="M339.801 205.42l.455-.587m-4.237 10.377l4.237-10.377-8.982 6.705"/></g><g stroke="#FC0" stroke-width="1.5"><path stroke-dasharray="12 6" d="M298.167 237.714c3.242-.608 7.976-3.578 13.159-8.256 5.183-4.678 10.391-10.681 14.479-16.689"/><path stroke-linecap="square" d="M326.813 211.508l.415-.542m-4.172 10.404l4.172-10.404-8.94 6.762"/></g><path fill="#000" stroke="#000" stroke-width="1.5" d="M330.632 161.831h139.94M330.247 232.66h140.72"/><path fill="#FFF" d="M449.819 162.54h21.51v69.392h-21.51z"/><text fill="#000" font-family="Helvetica-Bold, Helvetica" font-size="16" font-weight="bold" transform="translate(382.14 185.287)"><tspan x=".24" y="15.33">Build</tspan></text><text fill="#000" font-family="Helvetica" font-size="16" transform="translate(648.291 105.413)"><tspan x=".19" y="15.83">project.deps.js</tspan></text><text fill="#000" font-family="Helvetica" font-size="16" transform="translate(647.591 266.988)"><tspan x=".98" y="15.83">project.bemhtml.js</tspan></text><g stroke="#000" stroke-width="1.5"><path d="M493.405 190.264c8.454 1.147 22.388-2.36 38.736-9.75 16.348-7.39 33.77-18.056 48.432-29.653"/><path stroke-linecap="square" d="M581.976 148.99l.46-.412m-6.049 9.437l6.049-9.437-10.05 4.965"/></g><g stroke="#FC0" stroke-width="1.5"><path stroke-dasharray="12 6" d="M493.388 204.433c8.396-.855 22.281 2.786 38.601 10.122s33.738 17.766 48.421 28.996"/><path stroke-linecap="square" d="M581.303 243.209l.53.315m-10.817-2.936l10.818 2.936-7.754-8.095"/></g><text fill="#000" font-family="Helvetica-Bold, Helvetica" font-size="16" font-weight="bold" transform="translate(586.866 21.695)"><tspan x=".01" y="15.33">Bundles</tspan></text><text fill="#000" font-family="Helvetica-Bold, Helvetica" font-size="16" font-weight="bold" transform="translate(358.121 20.854)"><tspan x=".17" y="15.74">Declaration</tspan></text><text fill="#F66" font-family="Helvetica" font-size="16" transform="translate(358.37 55.925)"><tspan x="0" y="15.16">search-form</tspan></text><path stroke="#000" stroke-width="1.5" d="M402.271 86.821v61.994m-3-10.8l3 10.8 3-10.8"/><text fill="#000" font-family="Helvetica" font-size="16" transform="translate(647.591 185.917)"><tspan x=".88" y="15.83">project.css</tspan></text><path stroke="#979797" stroke-linecap="square" stroke-width="1.5" d="M493.476 197.5l88.044-.046m-10.798 3.006l10.798-3.006-10.802-2.994"/><path fill="#FFF" d="M590.116 227.918c-.81 0-1.46-.65-1.46-1.46v-58.16c0-.81.65-1.46 1.46-1.46h37.59c.37 0 .75.15 1.03.43l8.13 8.14c.28.28.44.65.44 1.03v50.05c0 .81-.66 1.46-1.47 1.46h-45.72v-.03z"/><path fill="#12100B" d="M627.673 167.461c.22 0 .44.09.59.25l8.14 8.13c.15.16.25.38.25.59v50.06c0 .46-.38.84-.84.84h-45.69c-.47 0-.84-.38-.84-.84v-58.19c0-.47.37-.84.84-.84h37.55zm0-1.25h-37.55c-1.16 0-2.09.94-2.09 2.09v58.19c0 1.15.93 2.08 2.09 2.08h45.72c1.15 0 2.09-.93 2.09-2.08v-50.06c0-.56-.22-1.09-.63-1.46l-8.13-8.13c-.41-.41-.94-.63-1.5-.63z"/><text fill="#000" font-family="ArialMT, Arial" font-size="12" transform="translate(600.033 211.454)"><tspan x=".18" y="11.79">CSS</tspan></text><path fill="#FFCC09" d="M627.52 166.838v7.7c0 1.15.93 2.08 2.09 2.08h7.66l-9.75-9.78z"/><path stroke="#010202" stroke-width="1.25" d="M627.52 166.838v7.7c0 1.15.93 2.08 2.09 2.08h7.66"/><path fill="#FFF" stroke="#000" stroke-width="2.25" d="M598.496 180.386h28.658v28.346h-28.658z"/><path fill="#000" stroke="#000" stroke-width=".72" d="M601.076 182.654h23.244v23.244h-23.244z"/><path fill="#FFF" d="M590.213 146.848c-.81 0-1.46-.65-1.46-1.46v-58.16c0-.81.65-1.46 1.46-1.46h37.59c.37 0 .75.15 1.03.43l8.13 8.14c.28.28.44.65.44 1.03v50.05c0 .81-.66 1.46-1.47 1.46h-45.72v-.03z"/><path fill="#12100B" d="M627.77 86.391c.22 0 .44.09.59.25l8.14 8.13c.15.16.25.38.25.59v50.06c0 .46-.38.84-.84.84h-45.69c-.47 0-.84-.38-.84-.84v-58.19c0-.47.37-.84.84-.84h37.55zm0-1.25h-37.55c-1.16 0-2.09.94-2.09 2.09v58.19c0 1.15.93 2.08 2.09 2.08h45.72c1.15 0 2.09-.93 2.09-2.08v-50.06c0-.56-.22-1.09-.63-1.46l-8.13-8.13c-.41-.41-.94-.63-1.5-.63z"/><text fill="#000" font-family="ArialMT, Arial" font-size="12" transform="translate(605.13 130.384)"><tspan x=".52" y="11.79">JS</tspan></text><path fill="#FFCC09" d="M627.617 85.768v7.7c0 1.15.93 2.08 2.09 2.08h7.66l-9.75-9.78z"/><path stroke="#010202" stroke-width="1.25" d="M627.617 85.768v7.7c0 1.15.93 2.08 2.09 2.08h7.66"/><path fill="#000" stroke="#010202" stroke-width="1.5" d="M595.048 98.302h36.06m-36.06 3.796h36.06m-36.06 3.796h36.06m-36.06 3.796h36.06m-36.06 3.795h26.57"/><g stroke="#FC0" stroke-width="1.5"><path stroke-dasharray="12 6" d="M288.246 287.603c13.13-6.148 32.99-35.463 44.36-65.478"/><path stroke-linecap="square" d="M333.81 219.57l.27-.63m-1.506 11.107l1.506-11.107-7.019 8.74"/></g><g stroke="#FC0" stroke-width="1.5"><path stroke-dasharray="12 6" d="M312.621 141.618c.273 3.226 2.566 8.42 6.376 14.437 3.81 6.019 8.824 12.368 13.939 17.653"/><path stroke-linecap="square" d="M333.697 174l.464.5m-9.549-5.87l9.55 5.87-5.154-9.954"/></g><g stroke="#000" stroke-width="1.5"><path d="M298.449 158.625c2.421 6.145 15.236 15.307 28.626 20.466"/><path stroke-linecap="square" d="M328.678 180.03l.708.27m-11.16-1.04l11.16 1.04-9.024-6.648"/></g></g></svg>